<?xml version="1.0" standalone="no"?><!DOCTYPE svg PUBLIC "-//W3C//DTD SVG 1.1//EN" "http://www.w3.org/Graphics/SVG/1.1/DTD/svg11.dtd"><svg t="1584415698017" class="icon" viewBox="0 0 1024 1024" version="1.1" xmlns="http://www.w3.org/2000/svg" p-id="1603" xmlns:xlink="http://www.w3.org/1999/xlink" width="200" height="200"><defs><style type="text/css"></style></defs><path d="M651.946667 300.373333H375.466667v54.613334c0 64.853333 44.373333 122.88 105.813333 139.946666l6.826667 3.413334c3.413333 3.413333 6.826667 6.826667 6.826666 10.24v17.066666c-3.413333 0-3.413333 3.413333-3.413333 3.413334l-6.826667 3.413333c-61.44 17.066667-105.813333 75.093333-105.813333 139.946667V716.8h276.48v-44.373333c0-64.853333-40.96-122.88-105.813333-139.946667-3.413333 0-3.413333-3.413333-6.826667-3.413333v-3.413334s0-3.413333-3.413333-3.413333v-6.826667c0-10.24 6.826667-20.48 13.653333-20.48 64.853333-17.066667 105.813333-75.093333 105.813333-139.946666V300.373333h-6.826666z" fill="#0086FF" p-id="1604"></path><path d="M512 27.306667C245.76 27.306667 27.306667 242.346667 27.306667 512S242.346667 996.693333 512 996.693333 996.693333 781.653333 996.693333 512C996.693333 245.76 778.24 27.306667 512 27.306667zM696.32 682.666667v44.373333h30.72c10.24 0 20.48 10.24 20.48 20.48s-10.24 20.48-20.48 20.48H296.96c-10.24 0-20.48-10.24-20.48-20.48s10.24-20.48 20.48-20.48h34.133333V682.666667c0-68.266667 34.133333-129.706667 92.16-163.84-58.026667-34.133333-92.16-98.986667-92.16-163.84V296.96h-34.133333c-10.24 0-20.48-10.24-20.48-20.48s10.24-20.48 20.48-20.48h430.08c10.24 0 20.48 10.24 20.48 20.48s-10.24 20.48-20.48 20.48h-30.72v54.613333c0 68.266667-34.133333 129.706667-92.16 163.84 58.026667 37.546667 92.16 98.986667 92.16 167.253334z" fill="#0086FF" p-id="1605"></path></svg>